<svg width="219" height="217" viewBox="0 0 219 217" fill="none" xmlns="http://www.w3.org/2000/svg">
<path fill-rule="evenodd" clip-rule="evenodd" d="M112.381 4.20136C107.737 4.20136 103.331 4.29152 99.1497 4.46128C99.0824 4.61929 98.9944 4.77156 98.8852 4.91439C89.6111 17.0586 80.6462 29.6717 72.2007 42.4626C80.9045 40.3818 91.8147 38.7471 105.9 38.3595C105.869 37.7623 106.092 37.1561 106.562 36.7154C116.947 26.9844 126.646 16.3797 135.422 5.15887C128.17 4.54395 120.456 4.20136 112.381 4.20136ZM140.373 5.62791C131.482 17.2234 121.62 28.1955 111.029 38.2757C111.477 38.2732 111.927 38.272 112.381 38.272C122.816 38.272 131.726 38.7889 139.369 39.5962C139.494 39.3285 139.678 39.0832 139.919 38.8805C149.279 31.0125 157.957 22.2325 165.713 12.7832L165.717 12.7779C166.366 11.9888 167.093 11.1042 167.967 10.3286C160.039 8.35551 150.734 6.71376 140.373 5.62791ZM173.412 11.7973C173.141 12.1599 172.752 12.4385 172.282 12.5672C171.054 12.9013 169.992 14.1933 168.965 15.4446L168.959 15.4512C161.645 24.3609 153.527 32.6915 144.798 40.2434C153.469 41.3983 160.311 42.9097 165.809 44.3532C166.626 42.4886 168.099 41.159 169.307 40.0694L169.31 40.0662L191.908 19.6906C187.896 16.9212 181.577 14.1832 173.412 11.7973ZM194.964 22.5939L172.125 43.1876C171.348 43.8874 170.492 44.6586 169.957 45.493C171.478 45.9282 172.878 46.3453 174.171 46.7307C178.296 47.9594 181.289 48.8512 183.412 48.8691C183.45 48.8679 183.489 48.8678 183.527 48.8688C186.618 48.8062 192.093 43.0151 194.855 35.28C195.805 32.6227 197.467 26.631 194.964 22.5939ZM185.089 52.8764C190.558 51.5772 196.196 44.0205 198.813 36.6947C201.778 28.3907 200.773 21.412 196.055 17.5493C185.729 9.09735 155.141 0 112.381 0C90.659 0 73.8971 1.93446 61.0373 4.84167C60.3668 4.65772 59.6248 4.81262 59.0792 5.29897C28.7664 12.6094 21.2246 25.3834 21.2246 29.7747C21.2246 33.7482 26.1568 57.4804 38.3204 57.8724C39.4804 61.3902 42.5641 70.6633 46.8702 83.021H2.10078C1.30611 83.021 0.579434 83.4703 0.223434 84.1796C-0.132566 84.8903 -0.05924 85.7409 0.415427 86.3769L21.3074 114.43L0.538083 137.572C-0.0165838 138.189 -0.15524 139.074 0.182093 139.832C0.519427 140.589 1.27278 141.077 2.10078 141.077H68.3588C95.0883 208.417 106.235 216.586 112.322 216.755C112.35 216.756 112.378 216.756 112.406 216.757C112.44 216.757 112.475 216.757 112.51 216.757C118.632 216.757 129.672 208.365 155.061 141.077H216.421C216.433 141.078 216.442 141.077 216.449 141.077C217.61 141.077 218.55 140.136 218.55 138.976C218.55 138.364 218.289 137.813 217.871 137.429L197.213 112.049L218.05 86.4489C218.562 85.8196 218.667 84.9529 218.318 84.2196C217.971 83.4876 217.233 83.021 216.421 83.021H175.438C180.407 67.9536 183.945 56.5856 185.089 52.8764ZM171.013 83.021C175.752 68.6866 179.251 57.52 180.714 52.8022C178.563 52.4241 176.06 51.6784 172.97 50.7574L172.962 50.7551C162.563 47.6575 145.158 42.4733 112.381 42.4733C78.8909 42.4733 62.3002 49.3884 51.3215 53.9644L51.3193 53.9654C47.9774 55.359 45.1718 56.5289 42.5366 57.2391C43.8849 61.3173 47.0307 70.7425 51.3202 83.021H171.013ZM150.569 141.077H72.8831C98.4439 205.13 109.02 212.458 112.439 212.556H112.505C115.929 212.556 126.237 205.236 150.569 141.077ZM66.1324 44.0764C66.1651 44.0128 66.2013 43.9503 66.2412 43.8891C74.9086 30.5691 84.1537 17.4099 93.7463 4.73155C80.6722 5.51232 69.9726 7.1 61.2529 9.12148C50.1975 21.1027 40.0935 34.0977 31.2087 47.759C33.2211 51.1675 35.7162 53.6747 38.626 53.6747C38.906 53.6747 39.1926 53.652 39.4846 53.6066C42.3392 53.1564 45.5849 51.804 49.6913 50.093L49.7033 50.088C54.0857 48.2607 59.3376 46.0713 66.1324 44.0764ZM29.0507 43.3886C36.5383 32.0871 44.848 21.2525 53.8277 11.078C31.5688 17.714 25.4717 27.1327 25.4273 29.776C25.4273 31.6151 26.7041 37.7808 29.0507 43.3886ZM76.795 107.605C76.795 110.305 75.7696 111.171 73.879 111.171H71.0697V98.368H73.879C75.7696 98.368 76.795 99.2334 76.795 101.933V107.605ZM73.879 116.573C79.8203 116.573 82.7363 113.277 82.7363 107.228V102.312C82.7363 96.2614 79.8203 92.9667 73.879 92.9667H65.127V130.779H71.0697V116.573H73.879ZM91.4369 92.9663H85.4941V130.778H91.4369V92.9663ZM94.8379 125.485L106.127 98.368H95.3792V92.9667H112.231V98.26L100.943 125.377H112.231V130.779H94.8379V125.485ZM114.827 125.485L126.115 98.368H115.367V92.9667H132.221V98.26L120.931 125.377H132.221V130.779H114.827V125.485ZM144.267 99.6654L141.403 118.787H147.13L144.267 99.6654ZM148.913 92.9667L154.962 130.779H148.966L147.941 123.917H140.647L139.621 130.779H134.166L140.217 92.9667H148.913ZM73.3244 62.3035C71.5644 59.3141 67.6604 57.3661 64.2391 58.5514C63.1991 58.9114 62.2685 59.4647 61.5125 60.1754C59.6778 61.2661 58.2471 63.0181 57.6604 65.1501C56.6578 68.7927 58.2738 72.7514 61.5298 74.6581C63.4738 75.7981 65.8431 76.1048 68.0164 75.5074C69.9524 74.9754 72.1725 73.5274 73.0485 71.6381C73.0816 71.5552 73.1142 71.4724 73.147 71.3892L73.2071 71.2368C74.9031 68.5848 74.9458 65.0568 73.3244 62.3035ZM113.065 50.9706C107.993 50.9706 107.993 58.8373 113.065 58.8373C118.138 58.8373 118.138 50.9706 113.065 50.9706ZM160.341 61.4012C156.053 61.4012 152.475 64.9785 152.475 69.2665C152.475 73.5545 156.053 77.1332 160.341 77.1332C164.629 77.1332 168.207 73.5545 168.207 69.2665C168.207 64.9785 164.629 61.4012 160.341 61.4012ZM106.494 150.801C106.463 150.715 106.433 150.631 106.401 150.546C105.807 148.927 104.987 147.614 103.457 146.717C101.511 145.578 98.9273 145.525 96.9873 146.717C96.9166 146.759 96.8459 146.803 96.7752 146.846C92.5672 149.433 92.4192 155.719 96.7752 158.271C98.8166 159.466 101.414 159.466 103.454 158.271C105.853 156.866 107.505 153.557 106.494 150.801ZM120.186 171.349C117.455 171.349 115.177 173.628 115.177 176.358C115.177 179.089 117.455 181.368 120.186 181.368C122.917 181.368 125.195 179.089 125.195 176.358C125.195 173.628 122.917 171.349 120.186 171.349ZM137.415 73.5435C136.426 71.7715 134.114 70.7874 132.161 71.4888C130.97 71.9168 130.165 72.5608 129.495 73.6194C128.801 74.7208 128.863 75.9408 129.054 77.1702C129.279 78.6128 130.755 79.8328 132.083 80.1982C133.575 80.6088 135.209 80.1768 136.302 79.0834C136.605 78.7808 136.843 78.4328 137.041 78.0621C138.054 76.8128 138.239 75.0168 137.415 73.5435ZM25.5834 115.958L6.81009 136.874H212.002L192.873 113.376C192.243 112.604 192.243 111.496 192.873 110.722L212.002 87.2236H6.28606L25.7047 113.301C26.3034 114.102 26.2514 115.214 25.5834 115.958ZM178.875 104.52C170.926 104.52 170.926 116.848 178.875 116.848C186.826 116.848 186.826 104.52 178.875 104.52ZM39.4903 104.52C31.5397 104.52 31.5397 116.848 39.4903 116.848C47.4397 116.848 47.4397 104.52 39.4903 104.52ZM131.171 151.349C128.541 151.349 128.541 155.428 131.171 155.428C133.802 155.428 133.802 151.349 131.171 151.349ZM100.068 170.376C96.6191 170.376 96.6191 175.724 100.068 175.724C103.518 175.724 103.518 170.376 100.068 170.376ZM100.18 71.2614C97.6093 71.2614 97.6093 75.2494 100.18 75.2494C102.753 75.2494 102.753 71.2614 100.18 71.2614Z" fill="black"/>
</svg>
